# xmcd CD database file generated by MAGIX-FreeDB-MP3_Maker_12 v2.0beta1
# 
# Track frame offsets:
#      150
#      14732
#      29935
#      47594
#      61430
#      76703
#      93471
#      107611
#      124218
#      143518
#      158005
#      173623
# 
# Disc length: 2584 seconds
# 
# Revision: 1 
# Processed by: cddbd v1.5.2PL0 Copyright (c) Steve Scherf et al.
# Submitted via: MAGIX-FreeDB-MP3_Maker_12 v2.0beta1
# 
DISCID=970a160c
DTITLE=Frank Galan - fiesta de amor
DYEAR=06
DGENRE=
TTITLE0=Frank Galan - Dame Tu Vida Mi Amor
TTITLE1=Frank Galan - Cante, Cante, Cante
TTITLE2=Frank Galan - Gira, Gira Corazon
TTITLE3=Frank Galan - La Vida
TTITLE4=Frank Galan - Vuelve A Mi
TTITLE5=Frank Galan - Que Si, Que Si, Que No
TTITLE6=Frank Galan - Hay Que Saber Vivir
TTITLE7=Frank Galan - Se Nos Murio La Pasion
TTITLE8=Frank Galan - Ave Maria
TTITLE9=Frank Galan - Si Tu Me Quieres Mujer
TTITLE10=Frank Galan - Vamos
TTITLE11=Frank Galan - Julio Medley
EXTD=
EXTT0=
EXTT1=
EXTT2=
EXTT3=
EXTT4=
EXTT5=
EXTT6=
EXTT7=
EXTT8=
EXTT9=
EXTT10=
EXTT11=
PLAYORDER=
